<svg xmlns="http://www.w3.org/2000/svg" viewBox="0 0 100 77.305">
  <defs>
    <style>
      .cls-1 {
        fill: #bbb;
      }
    </style>
  </defs>
  <g id="upload-to-cloud" transform="translate(0 -33.379)">
    <path id="Path_161" data-name="Path 161" class="cls-1" d="M77.171,58.833a27.269,27.269,0,0,0-54.418.01,26.024,26.024,0,0,0,3.286,51.841h39.6a2.04,2.04,0,0,0,0-4.079h-39.6a21.944,21.944,0,0,1-1.193-43.856,2.04,2.04,0,0,0,1.93-2.037c0-.04,0-.08,0-.121a23.189,23.189,0,0,1,46.377,0c0,.039,0,.081,0,.112a2.039,2.039,0,0,0,1.936,2.037A21.939,21.939,0,0,1,87.808,101.69a2.04,2.04,0,1,0,2.574,3.164A26.018,26.018,0,0,0,77.171,58.833Z"/>
    <path id="Path_162" data-name="Path 162" class="cls-1" d="M140.966,137.118v26.01a2.04,2.04,0,1,0,4.079,0v-26.01a2.04,2.04,0,1,0-4.079,0Z" transform="translate(-93.044 -67.127)"/>
    <path id="Path_163" data-name="Path 163" class="cls-1" d="M132.022,121.633a2.04,2.04,0,0,0,1.442-3.482L121.8,106.485a2.04,2.04,0,0,0-2.885,0l-11.666,11.666a2.04,2.04,0,1,0,2.885,2.885l10.224-10.224,10.224,10.224A2.035,2.035,0,0,0,132.022,121.633Z" transform="translate(-70.394 -47.86)"/>
  </g>
</svg>
